# Blender v3.0.1 OBJ File: 'shit rifle.blend'
# www.blender.org
mtllib shit rifle.mtl
o Cube
v 1.000000 1.000000 -0.592280
v 1.000000 -1.000000 -0.592280
v 1.000000 1.000000 0.592280
v 1.000000 -1.000000 0.592280
v -1.000000 1.000000 -0.592280
v 0.926040 -0.487018 0.487018
v -1.000000 -1.000000 -0.592280
v 0.926040 0.487018 0.487018
v -1.000000 1.000000 0.592280
v 0.926040 -0.487018 -0.487018
v -1.000000 -1.000000 0.592280
v 0.926040 0.487018 -0.487018
v -6.962584 -1.000000 -0.592280
v -6.962584 -1.000000 0.592280
v -6.962584 1.000000 0.592280
v -6.962584 1.000000 -0.592280
v -1.000000 -1.168950 -0.422722
v -1.000000 -1.168950 0.422722
v 1.000000 -1.168950 -0.422722
v 1.000000 -1.168950 0.422722
v 1.164997 0.888839 -0.526442
v 1.164997 -0.888839 -0.526442
v 1.164997 0.888839 0.526442
v 1.164997 -0.888839 0.526442
v 2.388392 0.888839 0.526442
v 2.388392 0.888839 -0.526442
v 6.952905 0.888839 -0.103241
v 4.612397 0.888839 -0.526442
v 4.612397 0.228385 -0.526442
v 7.260159 -0.793276 -0.103241
v 4.612397 0.888839 0.526442
v 6.952905 0.888839 0.103241
v 4.612397 0.228386 0.526442
v 7.260159 -0.793276 0.103241
v 2.388392 0.228386 -0.526442
v 2.737168 -0.179008 -0.103241
v 1.709688 -0.709547 -0.526442
v 2.737168 -0.179008 0.103241
v 2.388392 0.228385 0.526442
v 1.709688 -0.709547 0.526442
v -0.196844 -1.462298 -0.422722
v -0.405515 -1.462298 -0.308140
v -0.579002 -1.376691 -0.422722
v -0.405515 -1.462298 0.308140
v -0.196844 -1.462298 0.422722
v -0.579002 -1.376691 0.422722
v 0.954899 -1.462298 -0.308140
v 0.746229 -1.462298 -0.422722
v 0.984297 -1.271085 -0.422722
v 0.746229 -1.462298 0.422722
v 0.954899 -1.462298 0.308140
v 0.984297 -1.271085 0.422722
v 0.345134 -3.319044 -0.308140
v 0.553805 -3.319044 -0.422722
v 0.553805 -3.319044 0.422722
v 0.345134 -3.319044 0.308140
v 1.496878 -3.319044 -0.422722
v 1.705548 -3.319044 -0.308140
v 1.705548 -3.319044 0.308140
v 1.496878 -3.319044 0.422722
v -6.962584 -0.487018 0.487018
v -6.962584 0.487018 0.487018
v -6.962584 -0.487018 -0.487018
v -6.962584 0.487018 -0.487018
vt 0.625000 0.500000
vt 0.875000 0.500000
vt 0.875000 0.750000
vt 0.625000 0.750000
vt 0.375000 0.750000
vt 0.625000 1.000000
vt 0.375000 1.000000
vt 0.625000 0.250000
vt 0.375000 0.250000
vt 0.375000 0.250000
vt 0.625000 0.250000
vt 0.375000 0.500000
vt 0.375000 0.500000
vt 0.375000 0.250000
vt 0.375000 0.750000
vt 0.625000 0.750000
vt 0.439123 0.227785
vt 0.560877 0.227785
vt 0.375000 0.000000
vt 0.625000 0.000000
vt 0.560877 0.022215
vt 0.439123 0.022215
vt 0.625000 1.000000
vt 0.375000 1.000000
vt 0.125000 0.500000
vt 0.125000 0.750000
vt 0.125000 0.750000
vt 0.125000 0.500000
vt 0.875000 0.500000
vt 0.875000 0.750000
vt 0.375000 0.750000
vt 0.375000 0.750000
vt 0.375000 1.000000
vt 0.375000 1.000000
vt 0.375000 0.961653
vt 0.375000 0.788347
vt 0.125000 0.500000
vt 0.125000 0.750000
vt 0.375000 0.533882
vt 0.375000 0.716118
vt 0.375000 0.716118
vt 0.375000 0.533882
vt 0.375000 0.961653
vt 0.375000 0.788347
vt 0.375000 0.288347
vt 0.375000 0.461653
vt 0.375000 0.461653
vt 0.375000 0.288347
vt 0.336653 0.750000
vt 0.163347 0.750000
vt 0.125000 0.716118
vt 0.125000 0.533882
vt 0.163347 0.500000
vt 0.336653 0.500000
vt 0.125000 0.750000
vt 0.125000 0.500000
vt 0.125000 0.533882
vt 0.125000 0.716118
vt 0.375000 0.500000
vt 0.375000 0.250000
vt 0.375000 0.649514
vt 0.375000 0.600486
vt 0.375000 0.600486
vt 0.375000 0.649514
vt 0.625000 0.500000
vt 0.375000 0.500000
vt 0.625000 0.649514
vt 0.625000 0.600486
vt 0.625000 0.500000
vt 0.625000 0.500000
vt 0.625000 0.750000
vt 0.625000 0.750000
vt 0.504916 0.750000
vt 0.504916 0.750000
vt 0.375000 0.500000
vt 0.504916 0.500000
vt 0.375000 0.750000
vt 0.375000 0.500000
vt 0.375000 0.750000
vt 0.504916 0.500000
vt 0.125000 0.500000
vt 0.125000 0.750000
vt 0.375000 0.500000
vt 0.375000 0.750000
vt 0.125000 0.750000
vt 0.125000 0.500000
vt 0.375000 0.500000
vt 0.625000 0.500000
vt 0.625000 0.352442
vt 0.375000 0.352442
vt 0.375000 0.750000
vt 0.625000 0.750000
vt 0.375000 0.897558
vt 0.625000 0.897558
vt 0.227442 0.500000
vt 0.227442 0.750000
vt 0.772558 0.500000
vt 0.772558 0.750000
vn 0.0000 1.0000 0.0000
vn 0.0000 0.0000 1.0000
vn 0.0000 0.0000 -1.0000
vn 0.0000 -0.7084 -0.7058
vn 0.3706 0.0000 0.9288
vn -1.0000 0.0000 0.0000
vn 0.0000 -1.0000 0.0000
vn 0.0000 -0.7084 0.7058
vn 1.0000 0.0000 0.0000
vn 0.9271 0.3748 0.0000
vn -0.4425 -0.8968 0.0000
vn 0.9884 -0.1520 0.0000
vn -0.1346 -0.9909 0.0000
vn 0.3706 0.0000 -0.9288
vn 0.5587 -0.8293 0.0000
vn 0.5587 0.8293 0.0000
vn 0.9837 0.1797 0.0000
vn 0.3938 -0.9192 -0.0000
vn 0.5106 -0.3695 -0.7764
vn 0.5106 -0.3695 0.7764
vn 0.1717 0.0225 -0.9849
vn 0.1717 0.0225 0.9849
vn -0.0537 -0.5898 -0.8057
vn -0.0537 -0.5898 0.8057
vn -0.2031 -0.9066 -0.3699
vn -0.2031 -0.9066 0.3699
vn 0.4129 -0.5140 -0.7519
vn 0.4129 -0.5140 0.7519
vn -0.4725 -0.1910 0.8604
vn 0.4725 0.1910 0.8604
vn -0.4725 -0.1910 -0.8604
vn 0.4725 0.1910 -0.8604
vn -0.9271 -0.3748 0.0000
usemtl Material
s off
f 1/1/1 5/2/1 9/3/1 3/4/1
f 4/5/2 3/4/2 9/6/2 11/7/2
f 5/8/3 7/9/3 13/10/3 16/11/3
f 7/9/4 2/12/4 19/13/4 17/14/4
f 3/4/5 4/5/5 24/15/5 23/16/5
f 7/9/3 5/8/3 1/1/3 2/12/3
f 16/11/6 13/10/6 63/17/6 64/18/6
f 13/10/6 14/19/6 15/20/6 16/11/6 64/18/6 62/21/6 61/22/6 63/17/6
f 11/7/2 9/6/2 15/23/2 14/24/2
f 7/25/7 11/26/7 14/27/7 13/28/7
f 9/3/1 5/2/1 16/29/1 15/30/1
f 52/31/2 20/32/2 18/33/2 46/34/2 45/35/2 50/36/2
f 4/5/8 11/7/8 18/33/8 20/32/8
f 11/26/6 7/25/6 17/37/6 18/38/6
f 2/12/9 4/5/9 20/32/9 19/13/9
f 47/39/10 51/40/10 59/41/10 58/42/10
f 50/36/2 45/35/2 55/43/2 60/44/2
f 41/45/3 48/46/3 57/47/3 54/48/3
f 60/49/7 55/50/7 56/51/7 53/52/7 54/53/7 57/54/7 58/42/7 59/41/7
f 46/55/11 18/38/11 17/37/11 43/56/11 42/57/11 44/58/11
f 51/40/12 47/39/12 49/59/12 19/13/12 20/32/12 52/31/12
f 48/46/3 41/45/3 43/60/3 17/14/3 19/13/3 49/59/3
f 38/61/13 36/62/13 30/63/13 34/64/13
f 2/12/14 1/1/14 21/65/14 22/66/14
f 4/5/15 2/12/15 22/66/15 24/15/15
f 1/1/16 3/4/16 23/16/16 21/65/16
f 32/67/1 27/68/1 28/69/1 26/70/1 25/71/1 31/72/1
f 30/63/17 27/68/17 32/67/17 34/64/17
f 25/71/2 39/73/2 33/74/2 31/72/2
f 37/75/3 22/66/3 21/65/3 26/70/3 35/76/3
f 25/71/2 23/16/2 24/15/2 40/77/2 39/73/2
f 40/77/18 24/15/18 22/66/18 37/75/18 36/62/18 38/61/18
f 21/65/1 23/16/1 25/71/1 26/70/1
f 35/76/19 36/78/19 37/75/19
f 38/61/20 39/79/20 40/77/20
f 27/68/21 30/63/21 29/80/21 28/69/21
f 31/72/22 33/74/22 34/64/22 32/67/22
f 30/63/23 36/62/23 35/76/23 29/80/23
f 33/74/24 39/73/24 38/61/24 34/64/24
f 35/76/3 26/70/3 28/69/3 29/80/3
f 41/81/25 42/57/25 43/56/25
f 44/58/26 45/82/26 46/55/26
f 47/39/27 48/83/27 49/59/27
f 50/36/28 51/84/28 52/31/28
f 44/58/29 56/51/29 55/85/29 45/82/29
f 59/41/30 51/40/30 50/36/30 60/44/30
f 41/81/31 54/86/31 53/52/31 42/57/31
f 57/47/32 48/46/32 47/39/32 58/42/32
f 44/58/33 42/57/33 53/52/33 56/51/33
f 10/87/2 12/88/2 64/89/2 63/90/2
f 10/87/6 6/91/6 8/92/6 12/88/6
f 8/92/3 6/91/3 61/93/3 62/94/3
f 6/91/1 10/87/1 63/95/1 61/96/1
f 64/97/7 12/88/7 8/92/7 62/98/7
o Cube.001
v -11.791027 -0.439776 0.439776
v -11.791027 0.439776 0.439776
v -11.791027 -0.439776 -0.439776
v -11.791027 0.439776 -0.439776
v 0.277805 -0.439776 0.439776
v 0.277805 0.439776 0.439776
v 0.277805 -0.439776 -0.439776
v 0.277805 0.439776 -0.439776
vt 0.375000 0.000000
vt 0.625000 0.000000
vt 0.625000 0.250000
vt 0.375000 0.250000
vt 0.625000 0.500000
vt 0.375000 0.500000
vt 0.625000 0.750000
vt 0.375000 0.750000
vt 0.625000 1.000000
vt 0.375000 1.000000
vt 0.125000 0.500000
vt 0.125000 0.750000
vt 0.875000 0.500000
vt 0.875000 0.750000
vn -1.0000 0.0000 0.0000
vn 0.0000 0.0000 -1.0000
vn 1.0000 0.0000 0.0000
vn 0.0000 0.0000 1.0000
vn 0.0000 -1.0000 0.0000
vn 0.0000 1.0000 0.0000
usemtl None
s off
f 65/99/34 66/100/34 68/101/34 67/102/34
f 67/102/35 68/101/35 72/103/35 71/104/35
f 71/104/36 72/103/36 70/105/36 69/106/36
f 69/106/37 70/105/37 66/107/37 65/108/37
f 67/109/38 71/104/38 69/106/38 65/110/38
f 72/103/39 68/111/39 66/112/39 70/105/39
o Cube.002_Cube.003
v -4.750649 -4.961434 0.411219
v -4.750649 0.004609 0.411219
v -4.750649 -4.961434 -0.411219
v -4.750649 0.004609 -0.411219
v -2.750650 -4.961434 0.411219
v -2.750650 0.004609 0.411219
v -2.750650 -4.961434 -0.411219
v -2.750650 0.004609 -0.411219
v -4.931095 -4.381527 0.485421
v -4.931095 -5.228359 0.485421
v -4.931095 -4.381527 -0.485421
v -4.931095 -5.228359 -0.485421
v -2.570205 -4.381527 0.485421
v -2.570205 -5.228359 0.485421
v -2.570205 -4.381527 -0.485421
v -2.570205 -5.228359 -0.485421
v -4.447094 -5.304273 0.255680
v -4.447094 -5.304273 -0.255680
v -3.054205 -5.304273 -0.255680
v -3.054205 -5.304273 0.255680
v -4.447094 -5.563529 0.255680
v -4.447094 -5.563529 -0.255680
v -3.054205 -5.563529 -0.255680
v -3.054205 -5.563529 0.255680
vt 0.375000 0.000000
vt 0.625000 0.000000
vt 0.625000 0.250000
vt 0.375000 0.250000
vt 0.625000 0.500000
vt 0.375000 0.500000
vt 0.625000 0.750000
vt 0.375000 0.750000
vt 0.625000 1.000000
vt 0.375000 1.000000
vt 0.125000 0.500000
vt 0.125000 0.750000
vt 0.875000 0.500000
vt 0.875000 0.750000
vt 0.375000 0.000000
vt 0.625000 0.000000
vt 0.625000 0.250000
vt 0.375000 0.250000
vt 0.625000 0.500000
vt 0.375000 0.500000
vt 0.625000 0.750000
vt 0.375000 0.750000
vt 0.625000 1.000000
vt 0.375000 1.000000
vt 0.125000 0.500000
vt 0.125000 0.750000
vt 0.625000 0.500000
vt 0.625000 0.750000
vt 0.625000 1.000000
vt 0.625000 0.750000
vt 0.625000 1.000000
vt 0.625000 0.000000
vt 0.625000 0.250000
vt 0.625000 0.500000
vt 0.875000 0.500000
vt 0.875000 0.750000
vt 0.625000 0.250000
vt 0.625000 0.000000
vn -1.0000 0.0000 0.0000
vn 0.0000 0.0000 -1.0000
vn 1.0000 0.0000 0.0000
vn 0.0000 0.0000 1.0000
vn 0.0000 -1.0000 0.0000
vn 0.0000 1.0000 0.0000
vn -0.1550 0.9879 0.0000
vn 0.1550 0.9879 0.0000
vn 0.0000 0.9495 -0.3137
vn 0.0000 0.9495 0.3137
usemtl None
s off
f 73/113/40 74/114/40 76/115/40 75/116/40
f 75/116/41 76/115/41 80/117/41 79/118/41
f 79/118/42 80/117/42 78/119/42 77/120/42
f 77/120/43 78/119/43 74/121/43 73/122/43
f 75/123/44 79/118/44 77/120/44 73/124/44
f 80/117/45 76/125/45 74/126/45 78/119/45
f 81/127/42 82/128/42 84/129/42 83/130/42
f 83/130/43 84/129/43 88/131/43 87/132/43
f 87/132/40 88/131/40 86/133/40 85/134/40
f 85/134/41 86/133/41 82/135/41 81/136/41
f 83/137/44 87/132/44 85/134/44 81/138/44
f 86/133/46 88/131/46 91/139/46 92/140/46
f 89/141/41 92/140/41 96/142/41 93/143/41
f 84/129/47 82/128/47 89/144/47 90/145/47
f 82/135/48 86/133/48 92/140/48 89/141/48
f 88/131/49 84/129/49 90/145/49 91/139/49
f 95/146/45 94/147/45 93/148/45 96/142/45
f 91/139/43 90/145/43 94/149/43 95/146/43
f 92/140/40 91/139/40 95/146/40 96/142/40
f 90/145/42 89/144/42 93/150/42 94/149/42
o Cube.003_Cube.004
v -1.206003 -1.450625 0.185628
v -1.206003 -0.789127 0.185628
v -1.206003 -1.450625 -0.185628
v -1.206003 -0.789127 -0.185628
v -0.827173 -1.450625 0.185628
v -0.827173 -0.789127 0.185628
v -0.827173 -1.450625 -0.185628
v -0.827173 -0.789127 -0.185628
v -1.206003 -1.653975 -0.185628
v -1.206003 -1.653975 0.185628
v -0.827173 -1.653975 -0.185628
v -0.827173 -1.653975 0.185628
v -1.516544 -1.450625 -0.185628
v -1.516544 -1.450625 0.185628
v -1.516544 -1.653975 -0.185628
v -1.516544 -1.653975 0.185628
vt 0.375000 0.000000
vt 0.625000 0.000000
vt 0.625000 0.250000
vt 0.375000 0.250000
vt 0.625000 0.500000
vt 0.375000 0.500000
vt 0.625000 0.750000
vt 0.375000 0.750000
vt 0.625000 1.000000
vt 0.375000 1.000000
vt 0.375000 1.000000
vt 0.375000 0.750000
vt 0.875000 0.500000
vt 0.875000 0.750000
vt 0.125000 0.500000
vt 0.375000 0.500000
vt 0.125000 0.750000
vt 0.375000 0.250000
vt 0.125000 0.750000
vt 0.125000 0.500000
vt 0.375000 0.000000
vt 0.375000 0.250000
vt 0.375000 0.250000
vt 0.375000 0.000000
vt 0.375000 1.000000
vt 0.375000 1.000000
vn -1.0000 0.0000 0.0000
vn 0.0000 0.0000 -1.0000
vn 1.0000 0.0000 0.0000
vn 0.0000 0.0000 1.0000
vn 0.0000 1.0000 0.0000
vn 0.0000 -1.0000 0.0000
usemtl None
s off
f 97/151/50 98/152/50 100/153/50 99/154/50
f 99/154/51 100/153/51 104/155/51 103/156/51
f 103/156/52 104/155/52 102/157/52 101/158/52
f 101/158/53 102/157/53 98/159/53 97/160/53
f 101/158/53 97/160/53 106/161/53 108/162/53
f 104/155/54 100/163/54 98/164/54 102/157/54
f 105/165/55 107/166/55 108/162/55 106/167/55
f 99/154/51 103/156/51 107/166/51 105/168/51
f 105/165/55 106/167/55 112/169/55 111/170/55
f 103/156/52 101/158/52 108/162/52 107/166/52
f 110/171/50 109/172/50 111/173/50 112/174/50
f 99/154/51 105/168/51 111/173/51 109/172/51
f 97/151/54 99/154/54 109/172/54 110/171/54
f 106/161/53 97/160/53 110/175/53 112/176/53
