# Blender v3.0.1 OBJ File: 'shitty pisstol.blend'
# www.blender.org
mtllib shitty pisstol.mtl
o Cube
v 0.267178 1.353287 -2.002300
v -0.267178 1.353287 -2.002300
v -0.142272 1.843950 -0.091019
v 0.267178 0.115880 -1.162473
v -0.142272 2.222381 -0.091019
v -0.267178 0.115880 -1.162473
v 0.267178 0.137527 -2.069228
v -0.267178 0.137527 -2.069228
v 0.142272 1.843950 -0.091019
v 0.237117 1.103462 -1.005363
v 0.142272 2.222381 -0.091019
v 0.267178 1.120597 -1.115797
v 0.267178 1.177267 -1.003444
v -0.267178 1.120597 -1.115797
v -0.237117 1.103462 -1.005363
v -0.267178 1.177267 -1.003444
v 0.267178 1.225396 -1.791216
v 0.237117 1.242531 -1.901650
v 0.267178 1.309704 -1.907010
v -0.237117 1.242531 -1.901650
v -0.267178 1.225396 -1.791216
v -0.267178 1.309704 -1.907010
v 0.267178 0.227582 -1.254358
v 0.237117 0.210446 -1.143924
v 0.267178 0.137234 -1.158285
v -0.237117 0.210446 -1.143924
v -0.267178 0.227582 -1.254358
v -0.267178 0.137234 -1.158285
v 0.237117 0.349516 -2.040212
v 0.267178 0.332381 -1.929778
v 0.267178 0.275995 -2.050275
v -0.267178 0.332381 -1.929778
v -0.237117 0.349516 -2.040212
v -0.267178 0.275995 -2.050275
v 0.267178 2.435404 -1.000000
v 0.191233 2.621893 -1.000000
v 0.267178 2.435404 1.000000
v 0.191233 2.621893 1.000000
v -0.191233 2.621893 -1.000000
v -0.267178 2.435404 -1.000000
v -0.191233 2.621893 1.000000
v -0.267178 2.435404 1.000000
v 0.191233 2.656391 -1.848435
v 0.267178 2.471188 -1.870303
v -0.267178 2.471188 -1.870303
v -0.191233 2.656391 -1.848435
v 0.267178 1.525490 -1.000000
v 0.179316 1.309737 -1.000000
v 0.267178 1.177300 -1.003443
v 0.267178 1.309737 -1.328853
v 0.179316 1.309737 1.000000
v 0.267178 1.525490 1.000000
v -0.179316 1.309737 -1.000000
v -0.267178 1.525490 -1.000000
v -0.267178 1.309737 -1.328853
v -0.267178 1.177300 -1.003443
v -0.267178 1.525490 1.000000
v -0.179316 1.309737 1.000000
v 0.142272 2.222381 1.000000
v 0.142272 1.843950 1.000000
v -0.142272 1.843950 1.000000
v -0.142272 2.222381 1.000000
vt 0.839469 0.500000
vt 0.660531 0.500000
vt 0.660531 0.500000
vt 0.839469 0.500000
vt 0.589469 0.250000
vt 0.625000 0.285531
vt 0.625000 0.464469
vt 0.589469 0.500000
vt 0.375000 0.500000
vt 0.375000 0.250000
vt 0.416107 0.500000
vt 0.375000 0.500000
vt 0.589469 0.500000
vt 0.839469 0.750000
vt 0.660531 0.750000
vt 0.548883 0.808438
vt 0.625000 0.785531
vt 0.625000 0.964469
vt 0.589469 1.000000
vt 0.548883 0.941563
vt 0.416107 1.000000
vt 0.375000 0.958893
vt 0.375000 0.791107
vt 0.416107 0.750000
vt 0.589469 0.750000
vt 0.476782 0.808438
vt 0.476782 0.941562
vt 0.375000 0.250000
vt 0.375000 0.250000
vt 0.375000 0.250000
vt 0.375000 0.250000
vt 0.375000 0.250000
vt 0.375000 0.250000
vt 0.375000 0.264064
vt 0.375000 0.485936
vt 0.375000 0.485936
vt 0.375000 0.264064
vt 0.416107 0.000000
vt 0.589469 0.000000
vt 0.589469 0.250000
vt 0.416107 0.250000
vt 0.375000 0.250000
vt 0.375000 0.250000
vt 0.166107 0.500000
vt 0.333893 0.500000
vt 0.333893 0.750000
vt 0.166107 0.750000
vt 0.375000 0.500000
vt 0.375000 0.500000
vt 0.375000 0.500000
vt 0.375000 0.500000
vt 0.125000 0.500000
vt 0.125000 0.500000
vt 0.375000 0.500000
vt 0.375000 0.500000
vt 0.360936 0.500000
vt 0.139064 0.500000
vt 0.375000 0.250000
vt 0.375000 0.250000
vt 0.375000 0.250000
vt 0.375000 0.250000
vt 0.375000 0.500000
vt 0.125000 0.500000
vt 0.375000 0.500000
vt 0.375000 0.500000
vt 0.360936 0.500000
vt 0.375000 0.500000
vt 0.375000 0.250000
vt 0.375000 0.500000
vt 0.375000 0.500000
vt 0.125000 0.500000
vt 0.375000 0.250000
vt 0.125000 0.500000
vt 0.139064 0.500000
vt 0.625000 0.000000
vt 0.625000 0.250000
vt 0.625000 0.250000
vt 0.375000 0.500000
vt 0.375000 0.500000
vt 0.125000 0.500000
vt 0.125000 0.500000
vt 0.125000 0.500000
vt 0.125000 0.750000
vt 0.125000 0.500000
vt 0.375000 0.250000
vt 0.625000 0.250000
vt 0.625000 0.089700
vt 0.375000 0.089700
vt 0.375000 0.500000
vt 0.625000 0.500000
vt 0.375000 0.660300
vt 0.625000 0.660300
vt 0.125000 0.500000
vt 0.125000 0.660300
vt 0.875000 0.660300
vt 0.875000 0.500000
vn 0.0000 0.9992 0.0406
vn 0.0000 0.1173 -0.9931
vn 1.0000 0.0000 0.0000
vn 0.0000 1.0000 0.0000
vn 0.0000 0.0000 1.0000
vn -1.0000 0.0000 0.0000
vn 0.0000 0.1533 -0.9882
vn 0.0000 -1.0000 0.0000
vn 0.0000 -0.1925 0.9813
vn -0.0000 -0.6841 -0.7293
vn 0.0000 -0.9997 -0.0239
vn 0.0000 0.1356 -0.9908
vn 0.9077 -0.3746 0.1890
vn -0.9077 -0.3746 0.1890
vn 0.8621 -0.4096 -0.2982
vn -0.8621 -0.4096 -0.2982
vn 0.9030 0.3130 0.2944
vn -0.9030 0.3130 0.2944
vn 0.9007 0.3935 -0.1841
vn -0.9007 0.3935 -0.1841
vn 0.9657 -0.0398 0.2567
vn 0.9657 0.0398 -0.2567
vn -0.9657 -0.0398 0.2567
vn -0.9657 0.0398 -0.2567
vn 0.0000 -0.1533 0.9882
vn 0.9261 0.3772 0.0000
vn -0.9261 0.3772 0.0000
vn 0.9259 0.3775 0.0154
vn -0.9259 0.3775 0.0154
vn 0.9661 -0.0026 0.2581
vn -0.9661 -0.0026 0.2581
vn -0.9261 -0.3772 0.0000
vn 0.9261 -0.3772 0.0000
vn 0.0000 -0.0260 0.9997
usemtl Material
s off
f 39/1/1 36/2/1 43/3/1 46/4/1
f 45/5/2 46/6/2 43/7/2 44/8/2 1/9/2 2/10/2
f 47/11/3 50/12/3 1/9/3 44/8/3 35/13/3
f 36/2/4 39/1/4 41/14/4 38/15/4
f 59/16/5 38/17/5 41/18/5 42/19/5 62/20/5
f 42/19/5 57/21/5 58/22/5 51/23/5 52/24/5 37/25/5 38/17/5 59/16/5 60/26/5 61/27/5 62/20/5
f 55/28/6 2/10/6 22/29/6 21/30/6 14/31/6 16/32/6 56/33/6
f 20/34/7 18/35/7 29/36/7 33/37/7
f 57/38/6 42/39/6 40/40/6 54/41/6
f 14/31/6 21/30/6 32/42/6 27/43/6
f 53/44/8 48/45/8 51/46/8 58/47/8
f 17/48/3 12/49/3 23/50/3 30/51/3
f 28/52/9 6/53/9 4/54/9 25/55/9 24/56/9 26/57/9
f 34/58/6 8/59/6 6/60/6 28/61/6 27/43/6 32/42/6
f 47/11/3 35/13/3 37/25/3 52/24/3
f 54/41/6 40/40/6 45/5/6 2/10/6 55/28/6
f 22/29/10 2/10/10 1/9/10 19/62/10 18/35/10 20/34/10
f 4/54/11 6/53/11 8/63/11 7/64/11
f 30/51/3 23/50/3 25/55/3 4/54/3 7/64/3 31/65/3
f 33/37/12 29/36/12 31/65/12 7/64/12 8/59/12 34/58/12
f 10/66/13 12/49/13 13/67/13
f 14/31/14 15/68/14 16/32/14
f 17/48/15 18/69/15 19/62/15
f 20/34/16 21/30/16 22/29/16
f 23/50/17 24/70/17 25/55/17
f 26/57/18 27/71/18 28/52/18
f 29/36/19 30/51/19 31/65/19
f 32/42/20 33/72/20 34/58/20
f 10/66/21 24/56/21 23/50/21 12/49/21
f 29/36/22 18/35/22 17/48/22 30/51/22
f 14/73/23 27/71/23 26/57/23 15/74/23
f 20/34/24 33/37/24 32/42/24 21/30/24
f 10/66/25 15/74/25 26/57/25 24/56/25
f 36/2/26 38/15/26 37/25/26 35/13/26
f 41/75/27 39/76/27 40/40/27 42/39/27
f 43/3/28 36/2/28 35/13/28 44/8/28
f 39/76/29 46/77/29 45/5/29 40/40/29
f 50/12/3 49/78/3 13/67/3 12/49/3 17/48/3 19/62/3 1/9/3
f 47/11/30 48/79/30 49/78/30 50/12/30
f 53/44/31 54/80/31 55/81/31 56/82/31
f 53/44/32 58/47/32 57/83/32 54/80/32
f 51/46/33 48/45/33 47/11/33 52/24/33
f 56/82/34 16/84/34 15/74/34 10/66/34 13/67/34 49/78/34 48/45/34 53/44/34
f 3/85/3 5/86/3 62/87/3 61/88/3
f 3/85/5 9/89/5 11/90/5 5/86/5
f 11/90/6 9/89/6 60/91/6 59/92/6
f 60/91/4 9/89/4 3/93/4 61/94/4
f 62/95/8 5/96/8 11/90/8 59/92/8
